<?xml version="1.0" standalone="no"?>
<!DOCTYPE svg PUBLIC "-//W3C//DTD SVG 20010904//EN"
 "http://www.w3.org/TR/2001/REC-SVG-20010904/DTD/svg10.dtd">
<svg version="1.0" xmlns="http://www.w3.org/2000/svg"
 width="96.000000pt" height="96.000000pt" viewBox="0 0 96.000000 96.000000"
 preserveAspectRatio="xMidYMid meet">

<g transform="translate(0.000000,96.000000) scale(0.100000,-0.100000)"
fill="#000000" stroke="none">
<path d="M534 938 c-47 -22 -57 -92 -20 -135 20 -23 31 -27 68 -26 40 1 47 -3
101 -55 l57 -56 0 -86 c0 -90 11 -120 37 -99 9 8 13 40 13 106 l0 95 -64 66
c-59 62 -64 70 -63 111 0 36 -5 49 -27 68 -29 24 -67 29 -102 11z m67 -38 c21
-12 25 -50 7 -68 -39 -39 -100 17 -63 58 21 23 29 24 56 10z"/>
<path d="M329 741 c-16 -16 -29 -39 -29 -51 0 -31 27 -78 49 -85 16 -5 21 -17
23 -58 2 -38 7 -52 18 -52 11 0 16 14 18 52 2 41 7 53 23 58 22 7 49 54 49 85
0 12 -13 35 -29 51 -40 39 -82 39 -122 0z m96 -35 c23 -34 5 -66 -35 -66 -40
0 -58 32 -35 66 8 13 24 24 35 24 11 0 27 -11 35 -24z"/>
<path d="M560 646 c0 -47 -3 -57 -22 -67 -53 -28 -64 -89 -24 -135 51 -60 150
-19 150 62 0 29 -7 43 -31 63 -27 22 -32 35 -35 76 -2 38 -7 51 -20 53 -15 3
-18 -5 -18 -52z m41 -106 c21 -12 25 -50 7 -68 -39 -39 -100 17 -63 58 21 23
29 24 56 10z"/>
<path d="M162 420 c-43 -19 -59 -40 -47 -59 4 -7 21 -3 48 11 71 37 141 30
267 -27 58 -26 111 -52 118 -57 17 -14 15 -43 -3 -58 -13 -11 -28 -8 -88 18
-80 36 -107 40 -107 17 0 -16 110 -71 162 -82 57 -11 107 49 87 106 -8 22 -26
37 -77 61 -195 94 -274 109 -360 70z"/>
<path d="M680 382 c-68 -33 -35 -60 37 -31 29 12 35 11 50 -4 16 -15 13 -18
-40 -42 -52 -24 -70 -46 -48 -59 5 -3 45 10 89 29 44 19 89 35 101 35 27 0 44
-32 28 -53 -15 -20 -456 -207 -488 -207 -13 0 -81 27 -150 61 l-127 62 -61
-43 c-34 -24 -61 -49 -61 -56 0 -27 22 -24 70 10 28 20 55 36 60 36 6 0 60
-25 120 -55 77 -39 121 -55 149 -55 52 0 487 181 519 216 29 32 28 66 -2 101
-20 23 -32 28 -66 27 -31 -1 -47 4 -65 22 -29 29 -67 31 -115 6z"/>
</g>
</svg>
